<?xml version="1.0" encoding="UTF-8"?>
<!-- Generator: https://ezgif.com/png-to-svg -->
<svg version="1.1" xmlns="http://www.w3.org/2000/svg" width="512" height="512">
<path d="M0 0 C0.85 0.42 1.69 0.85 2.57 1.29 C9.08 4.85 14 9.56 19 15 C19.65 14.71 20.31 14.42 20.98 14.12 C31.13 10 40.1 9.48 50.33 13.67 C61.94 19.45 68.25 26.77 73.7 38.33 C74.99 41.13 74.99 41.13 77 44 C79.32 44.4 79.32 44.4 82 44.38 C90.55 44.96 97.59 48.55 103.41 54.86 C109.25 62.71 114 73.11 114 83 C115.07 83 116.13 82.99 117.23 82.99 C143.17 82.9 169.11 82.83 195.05 82.79 C207.59 82.77 220.14 82.74 232.68 82.7 C243.61 82.66 254.54 82.63 265.48 82.62 C271.27 82.62 277.06 82.61 282.84 82.58 C288.29 82.55 293.74 82.54 299.19 82.55 C301.19 82.55 303.19 82.54 305.19 82.52 C307.92 82.5 310.65 82.51 313.38 82.52 C314.17 82.51 314.97 82.5 315.78 82.48 C320.96 82.54 323.88 83.6 328 87 C335.11 96.48 330.47 114.92 329 126 C323.14 163.9 307.5 201.09 275.73 224.44 C253.18 240.46 226.5 247.68 199 247 C198.94 248.61 198.94 248.61 198.88 250.25 C197.65 259.6 192.35 267.69 185.57 274.02 C177.68 280.08 169.83 283.11 159.99 283.15 C159.28 283.15 158.57 283.15 157.85 283.16 C155.48 283.17 153.11 283.17 150.75 283.18 C149.05 283.18 147.35 283.19 145.66 283.2 C140.08 283.22 134.51 283.23 128.93 283.24 C127.01 283.24 125.09 283.25 123.17 283.25 C114.14 283.27 105.11 283.28 96.08 283.29 C85.67 283.3 75.26 283.33 64.85 283.37 C56.79 283.4 48.74 283.41 40.68 283.42 C35.88 283.42 31.07 283.43 26.26 283.45 C21.74 283.48 17.21 283.48 12.68 283.47 C11.03 283.47 9.38 283.48 7.72 283.49 C-7.44 283.61 -17.69 280.69 -28.94 270.19 C-34.32 264.61 -38.77 257.02 -39.13 249.14 C-39.09 248.43 -39.04 247.73 -39 247 C-39.83 247.05 -40.66 247.09 -41.51 247.14 C-74.48 248.14 -104.05 235.19 -128.48 213.83 C-158.65 185.38 -169.16 141.65 -171.16 101.73 C-171.44 91.59 -171.44 91.59 -168 87 C-162.52 82.12 -157.41 82.45 -150.3 82.55 C-148.55 82.55 -148.55 82.55 -146.75 82.54 C-142.89 82.55 -139.03 82.58 -135.16 82.61 C-132.48 82.62 -129.8 82.62 -127.12 82.63 C-120.79 82.64 -114.45 82.67 -108.12 82.71 C-100.91 82.76 -93.7 82.78 -86.49 82.8 C-71.66 82.84 -56.83 82.91 -42 83 C-42.01 82.31 -42.02 81.62 -42.03 80.92 C-42.04 80.01 -42.05 79.11 -42.05 78.18 C-42.06 77.29 -42.07 76.4 -42.09 75.48 C-41.98 72.55 -41.34 70.47 -40 67.88 C-39.63 67.13 -39.26 66.38 -38.88 65.62 C-38.44 64.82 -38.44 64.82 -38 64 C-38.58 63.47 -39.16 62.93 -39.76 62.38 C-49.22 53.35 -55.85 43.5 -56.4 30.17 C-56.57 20.41 -54.77 11.95 -47.98 4.6 C-34.96 -5.94 -14.79 -7.69 0 0 Z " fill="#FED012" transform="translate(176,225)"/>
<path d="M0 0 C0.85 0.42 1.69 0.85 2.57 1.29 C9.08 4.85 14 9.56 19 15 C19.65 14.71 20.31 14.42 20.98 14.12 C31.13 10 40.1 9.48 50.33 13.67 C61.94 19.45 68.25 26.77 73.7 38.33 C74.99 41.13 74.99 41.13 77 44 C79.32 44.4 79.32 44.4 82 44.38 C90.55 44.96 97.59 48.55 103.41 54.86 C109.25 62.71 114 73.11 114 83 C115.07 83 116.13 82.99 117.23 82.99 C143.17 82.9 169.11 82.83 195.05 82.79 C207.59 82.77 220.14 82.74 232.68 82.7 C243.61 82.66 254.54 82.63 265.48 82.62 C271.27 82.62 277.06 82.61 282.84 82.58 C288.29 82.55 293.74 82.54 299.19 82.55 C301.19 82.55 303.19 82.54 305.19 82.52 C307.92 82.5 310.65 82.51 313.38 82.52 C314.17 82.51 314.97 82.5 315.78 82.48 C320.96 82.54 323.88 83.6 328 87 C335.11 96.48 330.47 114.92 329 126 C323.14 163.9 307.5 201.09 275.73 224.44 C253.18 240.46 226.5 247.68 199 247 C198.94 248.61 198.94 248.61 198.88 250.25 C197.65 259.6 192.35 267.69 185.57 274.02 C177.68 280.08 169.83 283.11 159.99 283.15 C159.28 283.15 158.57 283.15 157.85 283.16 C155.48 283.17 153.11 283.17 150.75 283.18 C149.05 283.18 147.35 283.19 145.66 283.2 C140.08 283.22 134.51 283.23 128.93 283.24 C127.01 283.24 125.09 283.25 123.17 283.25 C114.14 283.27 105.11 283.28 96.08 283.29 C85.67 283.3 75.26 283.33 64.85 283.37 C56.79 283.4 48.74 283.41 40.68 283.42 C35.88 283.42 31.07 283.43 26.26 283.45 C21.74 283.48 17.21 283.48 12.68 283.47 C11.03 283.47 9.38 283.48 7.72 283.49 C-7.44 283.61 -17.69 280.69 -28.94 270.19 C-34.32 264.61 -38.77 257.02 -39.13 249.14 C-39.09 248.43 -39.04 247.73 -39 247 C-39.83 247.05 -40.66 247.09 -41.51 247.14 C-74.48 248.14 -104.05 235.19 -128.48 213.83 C-158.65 185.38 -169.16 141.65 -171.16 101.73 C-171.44 91.59 -171.44 91.59 -168 87 C-162.52 82.12 -157.41 82.45 -150.3 82.55 C-148.55 82.55 -148.55 82.55 -146.75 82.54 C-142.89 82.55 -139.03 82.58 -135.16 82.61 C-132.48 82.62 -129.8 82.62 -127.12 82.63 C-120.79 82.64 -114.45 82.67 -108.12 82.71 C-100.91 82.76 -93.7 82.78 -86.49 82.8 C-71.66 82.84 -56.83 82.91 -42 83 C-42.01 82.31 -42.02 81.62 -42.03 80.92 C-42.04 80.01 -42.05 79.11 -42.05 78.18 C-42.06 77.29 -42.07 76.4 -42.09 75.48 C-41.98 72.55 -41.34 70.47 -40 67.88 C-39.63 67.13 -39.26 66.38 -38.88 65.62 C-38.44 64.82 -38.44 64.82 -38 64 C-38.58 63.47 -39.16 62.93 -39.76 62.38 C-49.22 53.35 -55.85 43.5 -56.4 30.17 C-56.57 20.41 -54.77 11.95 -47.98 4.6 C-34.96 -5.94 -14.79 -7.69 0 0 Z M-158 96 C-158.29 108.08 -158.29 108.08 -157 120 C-156.21 120 -155.42 120 -154.61 120 C-107.94 120.08 -61.27 120.18 -14.6 120.28 C-9 120.29 -3.4 120.31 2.2 120.32 C3.31 120.32 4.43 120.32 5.58 120.32 C23.64 120.36 41.71 120.4 59.78 120.43 C78.31 120.46 96.84 120.5 115.37 120.54 C126.81 120.57 138.25 120.59 149.69 120.61 C157.53 120.62 165.36 120.64 173.2 120.66 C177.73 120.67 182.25 120.68 186.78 120.68 C190.92 120.69 195.06 120.7 199.2 120.71 C200.7 120.72 202.2 120.72 203.71 120.72 C205.74 120.72 207.77 120.73 209.81 120.74 C210.94 120.74 212.07 120.74 213.24 120.75 C216 121 216 121 219 123 C219.31 126 219.31 126 219 129 C216.27 131.73 214.77 131.25 210.94 131.26 C208.99 131.27 208.99 131.27 207.01 131.28 C205.55 131.28 204.09 131.28 202.64 131.28 C201.1 131.28 199.56 131.29 198.03 131.3 C193.79 131.31 189.55 131.32 185.32 131.32 C180.75 131.32 176.19 131.34 171.63 131.35 C163.72 131.37 155.81 131.39 147.9 131.4 C136.46 131.41 125.02 131.44 113.58 131.46 C95.03 131.51 76.47 131.55 57.91 131.58 C39.88 131.61 21.85 131.64 3.83 131.68 C2.16 131.69 2.16 131.69 0.46 131.69 C-5.11 131.7 -10.68 131.71 -16.25 131.73 C-62.5 131.83 -108.75 131.92 -155 132 C-154.54 134.04 -154.08 136.08 -153.61 138.13 C-153.35 139.26 -153.09 140.4 -152.83 141.57 C-145.56 171.65 -130.55 200.22 -103.69 217.12 C-101.47 218.43 -99.24 219.73 -97 221 C-96.09 221.54 -95.18 222.07 -94.24 222.62 C-87.96 226.07 -81.47 228.25 -74.62 230.25 C-73.37 230.62 -73.37 230.62 -72.09 231 C-56.48 235.32 -41.11 235.29 -25.04 235.27 C-22.53 235.28 -20.02 235.28 -17.51 235.29 C-11.42 235.3 -5.34 235.3 0.75 235.3 C5.7 235.3 10.66 235.3 15.61 235.31 C16.32 235.31 17.03 235.31 17.76 235.31 C19.2 235.31 20.64 235.31 22.08 235.31 C35.55 235.32 49.02 235.32 62.49 235.31 C74.76 235.31 87.04 235.32 99.32 235.34 C111.97 235.36 124.62 235.37 137.28 235.36 C144.36 235.36 151.45 235.36 158.53 235.38 C165.2 235.39 171.87 235.39 178.54 235.38 C180.98 235.37 183.41 235.38 185.84 235.38 C203.75 235.44 221.77 234.92 238.81 228.81 C240.11 228.36 240.11 228.36 241.44 227.9 C268.1 218.29 288.8 199.61 301.23 174.11 C307.5 160.78 312.65 146.56 315 132 C314.28 131.99 313.56 131.99 312.81 131.98 C306.01 131.92 299.21 131.85 292.42 131.76 C288.92 131.72 285.43 131.68 281.93 131.65 C277.91 131.62 273.9 131.57 269.88 131.51 C268.62 131.51 267.37 131.5 266.07 131.49 C264.91 131.47 263.75 131.45 262.55 131.43 C261.53 131.42 260.5 131.41 259.44 131.4 C258.64 131.27 257.83 131.14 257 131 C255 128 255 128 255.25 125.44 C256 123 256 123 258 121 C260.48 120.72 260.48 120.72 263.64 120.68 C264.82 120.66 266.01 120.64 267.22 120.62 C268.5 120.61 269.78 120.6 271.1 120.59 C272.41 120.57 273.72 120.55 275.06 120.53 C278.54 120.48 282.01 120.44 285.49 120.4 C289.03 120.36 292.58 120.31 296.12 120.26 C303.08 120.16 310.04 120.08 317 120 C318.57 112.15 318 104.01 318 96 C160.92 96 3.84 96 -158 96 Z " fill="#030403" transform="translate(176,225)"/>
<path d="M0 0 C15.14 11.26 22.3 36.04 25.18 53.95 C28.06 74.64 26.29 95.78 13.81 113.19 C0.48 130.01 -20.61 142.07 -42 145 C-45.5 145.19 -48.58 144.73 -52 144 C-52.99 143.79 -52.99 143.79 -54.01 143.58 C-78.97 138.14 -101.5 126.14 -115.81 104.19 C-125.4 88.8 -131.69 70.33 -131 52 C-130.46 49.77 -130.46 49.77 -129 48 C-126.58 46.81 -124.35 45.87 -121.81 45 C-120.74 44.62 -120.74 44.62 -119.65 44.23 C-101.81 38 -81.06 32.55 -62.22 37.06 C-54.13 39.3 -54.13 39.3 -46.07 38.21 C-42.36 35.82 -39.4 32.73 -36.43 29.5 C-34.32 27.29 -31.93 25.49 -29.5 23.62 C-25.11 20.05 -21.02 16.23 -17 12.25 C-16.45 11.71 -15.9 11.16 -15.33 10.6 C-12.34 7.59 -10.13 4.7 -8 1 C-5.11 -0.44 -3.2 -0.38 0 0 Z " fill="#010200" transform="translate(409,125)"/>
<path d="M0 0 C157.08 0 314.16 0 476 0 C476 19 476 19 475 24 C474.27 24 473.54 24 472.79 24 C465.9 24.02 459.02 24.06 452.13 24.13 C448.59 24.17 445.05 24.19 441.51 24.2 C437.44 24.2 433.37 24.25 429.3 24.29 C428.03 24.29 426.76 24.29 425.45 24.28 C423.68 24.31 423.68 24.31 421.87 24.34 C420.83 24.35 419.79 24.35 418.72 24.36 C415.07 25.22 414.15 27.04 412 30 C409.2 30.49 409.2 30.49 406.25 30.31 C405.27 30.27 404.28 30.22 403.27 30.18 C402.52 30.12 401.77 30.06 401 30 C400.73 29.36 400.47 28.71 400.2 28.05 C399.8 27.37 399.41 26.7 399 26 C395.94 25.18 395.94 25.18 393 25 C392.57 25.82 392.13 26.65 391.69 27.5 C388.47 30.49 387.5 30.34 383.25 30.31 C381.5 30.23 379.75 30.14 378 30 C377.71 29.36 377.42 28.72 377.12 28.06 C376.17 25.85 376.17 25.85 374 25 C371.98 24.9 369.95 24.87 367.93 24.86 C366.63 24.86 365.32 24.85 363.98 24.84 C362.52 24.84 361.06 24.84 359.6 24.84 C358.06 24.84 356.52 24.83 354.98 24.83 C350.73 24.81 346.48 24.81 342.23 24.8 C337.66 24.79 333.08 24.78 328.51 24.76 C320.58 24.74 312.64 24.72 304.71 24.71 C293.24 24.69 281.77 24.66 270.3 24.63 C251.7 24.58 233.09 24.54 214.49 24.5 C196.41 24.46 178.33 24.42 160.25 24.37 C159.14 24.37 158.03 24.37 156.88 24.36 C151.29 24.35 145.71 24.34 140.12 24.32 C93.75 24.21 47.37 24.1 1 24 C-0.57 16.15 0 8.01 0 0 Z " fill="#FEF6D6" transform="translate(18,321)"/>
<path d="M0 0 C2.49 2.02 4.71 4.12 6.86 6.5 C7.68 7.37 8.51 8.24 9.36 9.13 C17.99 19.62 18.93 32.52 17.86 45.5 C17.03 49.5 15.72 52.88 13.86 56.5 C13.44 57.36 13.01 58.22 12.57 59.11 C6.44 70.4 -2.95 76.59 -14.83 80.82 C-27.62 83.47 -40.93 81.68 -52.02 74.69 C-63.29 66.45 -69.8 56.3 -72.14 42.5 C-73.16 28.88 -69.91 16.89 -61.08 6.44 C-44.87 -10.8 -19.54 -14.23 0 0 Z " fill="#FAA000" transform="translate(78.140625,205.49609375)"/>
<path d="M0 0 C10.67 7.62 17.4 17.76 19.94 30.69 C21.08 43.5 18.85 54.62 11.25 65.19 C10.81 65.82 10.37 66.46 9.91 67.11 C2.74 76.46 -8.43 81.22 -19.75 83.19 C-32.77 84.24 -44.42 80.4 -55 72.88 C-64.09 64 -69.89 53.24 -70.13 40.37 C-70.1 26.59 -67.13 16.1 -57.53 5.8 C-41.69 -9.4 -18.58 -11.59 0 0 Z " fill="#FA9F00" transform="translate(486.75,36.8125)"/>
<path d="M0 0 C7.06 4.35 14.68 10.75 17 19 C20.84 19.57 22.91 19.77 26.15 17.48 C27.25 16.53 27.25 16.53 28.38 15.56 C32.1 12.47 34.74 10.9 39.61 10.74 C48.24 11.68 55.32 15.51 61 22 C65.66 28.1 67.89 34.15 69.46 41.63 C69.77 43.94 69.77 43.94 71 45 C74.71 44.96 78.41 44.87 82.12 44.7 C87.64 44.58 90.61 45.35 95 49 C95.57 49.47 96.14 49.94 96.72 50.43 C101.58 55.67 106 64.73 106 72 C62.53 74.42 62.53 74.42 45.47 61.78 C42.85 59.89 40.16 58.21 37.4 56.54 C24.67 48.83 12.59 40.28 1.23 30.66 C-1.68 28.5 -3.46 28.53 -7 29 C-7.66 29.66 -8.32 30.32 -9 31 C-8.96 35.26 -8.6 37.35 -5.68 40.53 C-4.62 41.35 -3.53 42.16 -2.44 42.94 C-1.84 43.39 -1.24 43.83 -0.62 44.3 C11.83 53.46 24.84 62.11 38.23 69.86 C38.81 70.24 39.4 70.61 40 71 C40 71.33 40 71.66 40 72 C31.54 72.02 23.08 72.04 14.63 72.05 C10.7 72.06 6.77 72.06 2.85 72.08 C-0.94 72.09 -4.73 72.09 -8.51 72.09 C-9.96 72.1 -11.41 72.1 -12.86 72.11 C-14.88 72.11 -16.9 72.11 -18.92 72.11 C-20.65 72.12 -20.65 72.12 -22.41 72.12 C-25 72 -25 72 -26 71 C-26.56 65.24 -25.53 62.52 -22 58 C-21.24 57.18 -20.47 56.35 -19.69 55.5 C-17.77 53.09 -17.77 53.09 -17.75 50.06 C-19.34 46.16 -21.41 44.91 -24.81 42.55 C-33.08 36.7 -36.84 29.49 -40 20 C-40.79 13.47 -39.77 8.42 -36 3 C-26.32 -6.68 -11.49 -6.46 0 0 Z " fill="#00AB82" transform="translate(172,237)"/>
<path d="M0 0 C8.41 7.86 12.81 16.91 13.31 28.38 C13.12 35.53 11.09 39.54 6.1 44.52 C2.89 47.4 -0.46 49.64 -4.19 51.81 C-3.63 52.55 -3.08 53.28 -2.51 54.04 C-1.42 55.51 -1.42 55.51 -0.31 57 C0.41 57.96 1.13 58.93 1.87 59.92 C6 66.06 6.67 71.52 5.81 78.81 C3.08 84.49 -1.29 88.46 -7 91.12 C-13.75 92.58 -19.37 92.57 -25.47 89.05 C-31.96 84.38 -32.96 76.24 -34.19 68.81 C-34.23 67.15 -34.25 65.48 -34.19 63.81 C-35.83 64.31 -35.83 64.31 -37.5 64.81 C-45.39 66.76 -53.06 66.94 -60.19 62.81 C-68.69 55.52 -72.66 47.05 -74.12 36.06 C-74.72 26.16 -71.55 17.22 -65.09 9.73 C-48.88 -6.64 -19.34 -15.72 0 0 Z " fill="#020101" transform="translate(169.1875,108.1875)"/>
<path d="M0 0 C8.22 6.73 12.03 14.82 13.53 25.27 C13.9 36.18 10.29 46.12 3.33 54.46 C0.96 56.84 -1.32 58.15 -4.47 59.27 C-5.09 59.5 -5.71 59.73 -6.35 59.96 C-13.07 60.95 -18.98 59.96 -25.47 58.27 C-25.44 58.95 -25.4 59.63 -25.37 60.33 C-25.13 68.37 -26.06 75.22 -30.22 82.21 C-35.18 86.75 -40.28 87.91 -46.85 87.68 C-53.1 86.71 -58.63 83.88 -62.54 78.84 C-65.77 73.5 -65.86 68.74 -64.42 62.79 C-62.87 58.66 -60.42 55.17 -57.93 51.56 C-56.29 49.44 -56.29 49.44 -56.47 47.27 C-58.56 45.89 -58.56 45.89 -61.16 44.52 C-66.87 41.21 -70.98 37.55 -73.47 31.27 C-74.65 19.78 -73.09 9.97 -66.29 0.46 C-49.02 -20.26 -19.6 -13.69 0 0 Z " fill="#010101" transform="translate(378.47265625,30.7265625)"/>
<path d="M0 0 C0.75 -0.04 1.49 -0.08 2.26 -0.12 C4.31 0.44 4.31 0.44 6 2.53 C10.92 13.42 9.81 26.61 6.27 37.7 C3.82 44.02 0.79 49.35 -3.69 54.44 C-4.21 55.04 -4.73 55.65 -5.27 56.27 C-13.66 65.31 -25.21 71.12 -37.55 71.79 C-46.17 72.03 -54.73 72.15 -62.69 68.44 C-64.03 67.82 -64.03 67.82 -65.41 67.18 C-76.52 61.58 -83.67 54.28 -89.69 43.44 C-90.06 42.77 -90.44 42.11 -90.82 41.43 C-92.29 38.48 -92.71 36.04 -92.94 32.75 C-91.69 29.44 -91.69 29.44 -90.17 28.43 C-82.38 25.13 -74.33 22.63 -66.27 20.09 C-64.68 19.58 -63.1 19.08 -61.51 18.57 C-57.35 17.25 -53.2 15.93 -49.04 14.62 C-44.82 13.28 -40.59 11.94 -36.37 10.59 C-31.62 9.08 -26.87 7.57 -22.11 6.07 C-21.39 5.84 -20.67 5.61 -19.92 5.37 C-17.98 4.76 -16.03 4.14 -14.08 3.52 C-11.85 2.81 -9.62 2.07 -7.39 1.32 C-4.82 0.48 -2.7 0.08 0 0 Z " fill="#010000" transform="translate(143.6875,3.5625)"/>
<path d="M0 0 C70.62 0 141.24 0 214 0 C210.56 10.31 210.56 10.31 207.06 14.25 C206.39 15.04 205.72 15.83 205.04 16.64 C195.44 24.1 185.13 24.73 173.45 24.63 C171.82 24.64 170.19 24.64 168.55 24.65 C164.15 24.67 159.76 24.66 155.36 24.64 C150.74 24.62 146.12 24.63 141.5 24.64 C133.74 24.64 125.99 24.62 118.24 24.6 C109.29 24.56 100.35 24.56 91.4 24.58 C82.77 24.6 74.13 24.59 65.5 24.57 C61.84 24.57 58.18 24.57 54.51 24.58 C50.2 24.58 45.88 24.57 41.57 24.54 C39.99 24.54 38.41 24.54 36.83 24.54 C24.89 24.59 16.61 23.09 7.72 14.79 C3.16 10.05 1.84 6.45 0 0 Z " fill="#FCF5D5" transform="translate(149,472)"/>
<path d="M0 0 C2.49 2.02 4.71 4.12 6.86 6.5 C7.68 7.37 8.51 8.24 9.36 9.13 C17.99 19.62 18.93 32.52 17.86 45.5 C17.03 49.5 15.72 52.88 13.86 56.5 C13.44 57.36 13.01 58.22 12.57 59.11 C6.44 70.4 -2.95 76.59 -14.83 80.82 C-27.62 83.47 -40.93 81.68 -52.02 74.69 C-63.29 66.45 -69.8 56.3 -72.14 42.5 C-73.16 28.88 -69.91 16.89 -61.08 6.44 C-44.87 -10.8 -19.54 -14.23 0 0 Z M-52.14 15.5 C-58.81 24.43 -60.7 33.47 -59.14 44.5 C-56.4 53.15 -51.46 60.36 -43.61 65 C-34.49 69.73 -27.05 70.92 -17.08 67.88 C-6.7 64.09 -1.25 58.18 3.89 48.57 C6.92 41.8 6.97 34.38 4.95 27.31 C0.75 16.49 -5.09 10.46 -15.41 5.39 C-28.74 1.07 -42.89 5.33 -52.14 15.5 Z " fill="#020100" transform="translate(78.140625,205.49609375)"/>
<path d="M0 0 C10.67 7.62 17.4 17.76 19.94 30.69 C21.08 43.5 18.85 54.62 11.25 65.19 C10.81 65.82 10.37 66.46 9.91 67.11 C2.74 76.46 -8.43 81.22 -19.75 83.19 C-32.77 84.24 -44.42 80.4 -55 72.88 C-64.09 64 -69.89 53.24 -70.13 40.37 C-70.1 26.59 -67.13 16.1 -57.53 5.8 C-41.69 -9.4 -18.58 -11.59 0 0 Z M-51.75 18.19 C-57.53 26.48 -58.73 34.15 -57.75 44.19 C-54.91 54.45 -49.9 61.63 -40.88 67.14 C-32.74 71.14 -23.64 71.5 -14.83 69.54 C-5.69 66.23 0.96 59.84 5.25 51.19 C8.39 43.71 8.67 34.6 6.19 26.89 C1.43 16.7 -4.91 9.99 -15.54 6.04 C-30.25 2.16 -41.86 7.21 -51.75 18.19 Z " fill="#010100" transform="translate(486.75,36.8125)"/>
<path d="M0 0 C4.89 3.73 8.4 7.7 10.38 13.62 C11.14 21.76 9.98 28.84 5.31 35.62 C2.66 38.36 1.08 38.8 -2.62 38.88 C-7.18 38.85 -10.95 37.72 -15.25 36.29 C-18.51 35.38 -21.26 35.41 -24.62 35.62 C-26.2 40.56 -26.91 44.91 -27.12 50.12 C-27.64 62.64 -27.64 62.64 -30.62 65.62 C-37.71 66.21 -37.71 66.21 -41.19 64 C-42.62 61.62 -42.62 61.62 -42.56 58.97 C-41.1 53.73 -37.82 49.93 -34.57 45.63 C-31.35 41.21 -29.91 38.12 -29.62 32.62 C-32.81 30.5 -35.99 29.08 -39.56 27.75 C-44.47 25.84 -49.16 23.55 -51.62 18.62 C-52.35 10.41 -49.89 4.26 -44.88 -2.25 C-33.32 -14.61 -12.27 -8.08 0 0 Z " fill="#FBC9A6" transform="translate(368.625,39.375)"/>
<path d="M0 0 C5.17 4.69 8.19 10.28 9.41 17.15 C9.53 20.64 9.13 22.85 7.1 25.71 C2.99 29.84 -2.55 31.74 -7.89 33.8 C-10.68 34.67 -10.68 34.67 -11.84 35.96 C-12.39 40.33 -12.14 43.03 -9.54 46.53 C-8.55 47.73 -7.54 48.92 -6.52 50.09 C-5.52 51.27 -4.53 52.46 -3.54 53.66 C-3.07 54.22 -2.6 54.78 -2.11 55.36 C2.19 60.75 2.19 60.75 2.1 64.59 C0.91 67.6 0.06 68.51 -2.84 69.96 C-6.59 70.15 -6.59 70.15 -9.84 69.96 C-12.62 63.33 -13.5 57.45 -14.01 50.32 C-14.47 44.55 -14.47 44.55 -17.84 39.96 C-22 39.15 -24.83 40.31 -28.59 41.96 C-33.72 44.12 -38.31 45.06 -43.84 43.96 C-48.73 40.66 -51.22 35.54 -52.84 29.96 C-53.84 22.86 -53.19 16.78 -48.84 10.96 C-37.68 -1.64 -15.06 -10.45 0 0 Z " fill="#FBCAA6" transform="translate(160.8359375,117.0390625)"/>
<path d="M0 0 C1.11 3.37 0.88 5.74 0.18 9.19 C-0.02 10.21 -0.23 11.23 -0.43 12.27 C-0.78 13.9 -0.78 13.9 -1.12 15.56 C-1.36 16.69 -1.59 17.81 -1.83 18.97 C-7.91 47.91 -17 76.35 -32 102 C-41.11 94.03 -46.45 78.85 -47.27 67.12 C-47.8 52.17 -43.62 41.22 -33.75 29.94 C-26.44 22.13 -18.39 15.37 -9.91 8.89 C-6.33 6.14 -3.13 3.26 0 0 Z " fill="#8FCA00" transform="translate(397,150)"/>
<path d="M0 0 C8.37 5.29 13.49 11.67 16.18 21.21 C17.23 29.81 16.42 37.71 11.25 44.89 C7.55 47.41 5.93 47.41 1.5 46.77 C-7.59 44.37 -14.02 40.72 -19.32 32.89 C-23.46 25.72 -24.92 17.45 -22.9 9.34 C-22.18 7.1 -21.41 4.94 -20.5 2.77 C-20.24 2.06 -19.98 1.36 -19.71 0.63 C-15.43 -5.96 -5.77 -2.84 0 0 Z " fill="#000000" transform="translate(45.50390625,115.23046875)"/>
<path d="M0 0 C1.11 -0.01 2.21 -0.01 3.35 -0.02 C8.02 0.39 8.02 0.39 10.38 2.25 C13.77 9.81 13.58 18.9 10.75 26.62 C7.6 33.45 3.06 38.72 -3.62 42.25 C-11.11 44.88 -17.63 46.3 -25.44 44.25 C-29.12 41.94 -29.12 41.94 -30.06 38.5 C-31.48 29.84 -30.63 21.4 -26.15 13.72 C-19.62 4.78 -11.19 -0.05 0 0 Z " fill="#000000" transform="translate(244.625,80.75)"/>
<path d="M0 0 C7.04 5.28 13.29 11.06 15 20 C15.81 31.44 14.8 39.37 7.69 48.56 C5.15 51.26 4.28 51.93 0.56 52.81 C-7.62 50.95 -13.19 45.7 -18 39 C-22.41 31.17 -23.12 22.68 -20.94 14.06 C-19.15 8.58 -16.19 3.97 -12 0 C-7.52 -2.25 -4.43 -2.37 0 0 Z " fill="#000100" transform="translate(474,226)"/>
<path d="M0 0 C0.73 0.43 1.46 0.85 2.22 1.29 C10.2 5.9 18.27 10.36 26.38 14.75 C27.4 15.3 28.42 15.86 29.47 16.43 C30.46 16.96 31.44 17.5 32.46 18.05 C33.41 18.56 34.35 19.08 35.32 19.61 C37.93 21.01 37.93 21.01 40.45 22.02 C42.62 22.93 42.62 22.93 46 25 C47.23 28.36 47.23 28.36 47.62 32.31 C49.13 43.77 53.6 53.82 59 64 C53.3 63.47 48.83 61.91 43.69 59.44 C42.94 59.08 42.2 58.73 41.43 58.36 C35.27 55.33 30.04 51.69 25 47 C24.11 46.18 23.23 45.35 22.31 44.5 C21.55 43.68 20.79 42.85 20 42 C19.47 41.45 18.94 40.9 18.39 40.34 C8.02 29.19 1.55 15.13 0 0 Z " fill="#00AC82" transform="translate(292,190)"/>
<path d="M0 0 C5.63 3.02 9.21 6.77 11.38 12.81 C12.35 19.22 11.58 23.83 7.81 29.12 C4.42 33.12 1.23 35.49 -4.04 36.09 C-10.9 36.34 -15.46 35.49 -20.62 30.81 C-24.89 25.34 -26.32 20.72 -25.62 13.81 C-23.48 7.15 -20.42 3.31 -14.25 0 C-8.93 -1.74 -5.32 -1.74 0 0 Z " fill="#010100" transform="translate(480.625,150.1875)"/>
<path d="M0 0 C4.76 2.67 8 6.13 9.75 11.38 C10.45 18.56 10.15 23.55 5.75 29.38 C1.33 33.57 -2.62 35.45 -8.69 35.69 C-14.27 35.54 -17.67 33.69 -21.94 30.12 C-25.38 26.03 -27 22.3 -27.69 17 C-27.03 11.57 -25.57 6.6 -21.53 2.73 C-14.9 -2.14 -7.59 -3.47 0 0 Z " fill="#010100" transform="translate(229.25,173.625)"/>
<path d="M0 0 C5.57 2.36 10.38 6.09 12.75 11.81 C13.51 18.43 13.35 23.08 10 29 C5.87 33.38 1.38 36.27 -4.69 36.5 C-10.71 36.37 -14.63 34.02 -19 30 C-22.59 25.93 -23.67 21.59 -23.37 16.27 C-22.37 10.15 -19.81 6.23 -14.88 2.5 C-9.94 -0.46 -5.63 -1.22 0 0 Z " fill="#050300" transform="translate(56,224)"/>
<path d="M0 0 C4.05 2.38 6.98 4.99 8.69 9.44 C9.58 15.85 9.63 22.05 5.69 27.44 C1.48 31.64 -2.12 34.22 -8.06 34.81 C-13.47 34.65 -17.97 32.66 -21.89 28.94 C-26.23 23.94 -26.73 19.69 -26.65 13.3 C-26.03 8.06 -23.65 4.53 -19.77 1.06 C-13.81 -3 -6.47 -2.82 0 0 Z " fill="#050300" transform="translate(470.3125,58.5625)"/>
<path d="M0 0 C0.78 10.81 -1.07 21.69 -8.26 30.16 C-8.83 30.77 -9.41 31.38 -10 32 C-10.64 32.69 -11.27 33.38 -11.93 34.09 C-19.38 41.43 -28.21 45.2 -38.69 45.5 C-49.42 45.01 -59.2 41.46 -67.11 34.01 C-70.2 30.62 -72.73 27.5 -74 23 C-66.91 19.8 -66.91 19.8 -63.75 20.5 C-62 22 -62 22 -60.31 24.31 C-56.41 28.84 -49.89 32.75 -43.88 33.27 C-34.37 33.52 -27.29 32.7 -19.94 26.17 C-13.43 19.31 -11.62 12.24 -11 3 C-4.5 0 -4.5 0 0 0 Z " fill="#CA3940" transform="translate(140,18)"/>
<path d="M0 0 C3.19 2.94 4.53 6.2 6.06 10.19 C6.33 10.86 6.59 11.54 6.86 12.24 C11.92 25.44 12.14 38.07 12 52 C9.31 53.44 6.63 54.88 3.94 56.31 C3.19 56.72 2.43 57.12 1.66 57.54 C-10.48 64 -10.48 64 -15 64 C-13.38 58.05 -11.75 52.11 -10.1 46.17 C-5.88 30.89 -2.31 15.71 0 0 Z " fill="#8DC700" transform="translate(410,150)"/>
<path d="M0 0 C0.5 0.99 0.5 0.99 1 2 C-5.05 17.16 -17.2 26.94 -31.57 33.67 C-34.36 34.85 -37.15 35.96 -40 37 C-33.1 14.95 -33.1 14.95 -26.81 10.43 C-24.62 9.31 -24.62 9.31 -22.17 8.75 C-17.51 7.64 -13.26 5.66 -8.88 3.75 C-7.19 3.03 -5.5 2.32 -3.8 1.61 C-2.54 1.07 -1.27 0.54 0 0 Z " fill="#8CC700" transform="translate(418,217)"/>
<path d="M0 0 C5.24 0.33 8.24 3.63 11.63 7.35 C13.36 9.85 14.06 11.25 14.25 14.25 C13.38 17.88 13.38 17.88 11.25 20 C7.31 21.2 6.04 20.81 2.38 18.88 C-5.05 12.76 -5.05 12.76 -6.41 8.29 C-6.62 5.88 -6.62 5.88 -5.69 3.06 C-3.62 0.88 -3.62 0.88 0 0 Z " fill="#000000" transform="translate(474.625,458.125)"/>
<path d="M0 0 C1.08 -0.04 1.08 -0.04 2.18 -0.07 C5.7 -0.09 7.75 0.11 10.64 2.17 C12.12 4.38 12.12 4.38 12.06 8 C11.12 11.38 11.12 11.38 8.12 13.38 C5.59 13.62 3.22 13.75 0.69 13.75 C-0.63 13.78 -1.95 13.81 -3.31 13.84 C-6.88 13.38 -6.88 13.38 -9.36 11.58 C-10.88 9.38 -10.88 9.38 -10.75 5.75 C-9.11 -0.58 -5.73 0.01 0 0 Z " fill="#000000" transform="translate(487.875,437.625)"/>
<path d="M0 0 C3.5 0.44 3.5 0.44 5.2 1.46 C7.25 4.57 6.89 7.84 6.81 11.44 C6.82 12.16 6.82 12.89 6.82 13.63 C6.78 17.42 6.64 19.22 4.5 22.44 C1.69 23.44 1.69 23.44 -1.5 23.44 C-4.48 21.82 -5.18 21.42 -6.5 18.44 C-7.18 12.96 -7.9 7 -5.19 2.03 C-3.5 0.44 -3.5 0.44 0 0 Z " fill="#000000" transform="translate(453.5,467.5625)"/>
<path d="M0 0 C2.42 -0.03 4.83 -0.05 7.25 -0.06 C7.93 -0.07 8.61 -0.08 9.32 -0.09 C12.69 -0.1 15.77 -0.06 19 1 C17.71 4.49 16.16 7.45 14.12 10.56 C10.73 16.08 8.81 21.81 7 28 C6.34 27.67 5.68 27.34 5 27 C4.31 24.41 4.31 24.41 3.71 21 C3.49 19.78 3.27 18.57 3.05 17.31 C2.83 16.04 2.6 14.76 2.38 13.44 C2.15 12.15 1.92 10.87 1.68 9.55 C1.11 6.37 0.55 3.18 0 0 Z " fill="#00A980" transform="translate(332,174)"/>
<path d="M0 0 C2.31 6.62 3.12 12.04 3 19 C-15.9 9.79 -15.9 9.79 -21 6 C-21 5.34 -21 4.68 -21 4 C-18.63 3.32 -16.25 2.66 -13.88 2 C-13.21 1.81 -12.54 1.62 -11.86 1.42 C-7.8 0.31 -4.2 -0.21 0 0 Z " fill="#00A57D" transform="translate(320,175)"/>
<path d="M0 0 C-0.29 5.91 -2.82 9.11 -7 13 C-11.38 15.8 -16.96 15.81 -22 15 C-24.75 13.6 -26.64 12.05 -29 10 C-28 8 -28 8 -25.53 7.04 C-24.46 6.71 -23.39 6.39 -22.29 6.05 C-21.12 5.7 -19.96 5.35 -18.77 4.98 C-17.54 4.62 -16.32 4.25 -15.06 3.88 C-13.84 3.5 -12.62 3.13 -11.37 2.75 C-2.3 0 -2.3 0 0 0 Z " fill="#F05253" transform="translate(117,25)"/>
<path d="M0 0 C-0.27 6.05 -0.91 10.25 -5 15 C-9.24 18.49 -12.55 19.56 -18 20 C-18.46 14.37 -17.58 10.38 -14 6 C-9.6 2.12 -6.02 0 0 0 Z " fill="#8AC400" transform="translate(245,93)"/>
<path d="M0 0 C3.39 0 5.41 0.46 7.92 2.78 C12.33 7.82 14.13 10.33 14.06 17.12 C14.05 18.22 14.04 19.32 14.04 20.45 C14.02 21.29 14.01 22.13 14 23 C9.22 22.25 6.31 20.49 3 17 C-0.81 11.67 -0.3 6.28 0 0 Z " fill="#00A980" transform="translate(35,126)"/>
<path d="M0 0 C2.44 0.38 3.72 0.72 5.48 2.5 C9.05 7.96 10.04 12.52 9 19 C7.5 22.62 7.5 22.62 6 25 C2.2 23.51 0.34 21.31 -2 18 C-3.79 12.64 -3.96 7 -1.5 1.88 C-1 1.26 -0.51 0.64 0 0 Z " fill="#8CC600" transform="translate(468,239)"/>
<path d="M0 0 C2.94 0.75 2.94 0.75 4.94 2.75 C5.27 5.85 5.39 7.92 3.88 10.69 C0.72 12.42 -1.69 11.61 -5.06 10.75 C-7.06 7.75 -7.06 7.75 -6.88 4.69 C-5.72 0.53 -4.28 -0.35 0 0 Z " fill="#F2C800" transform="translate(52.0625,236.25)"/>
<path d="M0 0 C2.94 0.81 2.94 0.81 4.94 2.81 C5.27 5.92 5.44 7.97 3.81 10.69 C1.03 12.36 -0.88 12.28 -4.06 11.81 C-6 10.12 -6 10.12 -7.06 7.81 C-6.92 4.98 -6.39 3.33 -4.88 0.94 C-3.06 -0.19 -3.06 -0.19 0 0 Z " fill="#0C0B07" transform="translate(414.0625,345.1875)"/>
<path d="M0 0 C3.56 0.31 3.56 0.31 5.5 1.5 C6.95 3.97 6.99 5.49 6.56 8.31 C5.44 10.12 5.44 10.12 3.56 11.31 C0.41 11.71 -1.56 11.84 -4.31 10.19 C-5.94 7.47 -5.77 5.42 -5.44 2.31 C-3.44 0.31 -3.44 0.31 0 0 Z " fill="#F3C3A1" transform="translate(220.4375,184.6875)"/>
<path d="M0 0 C2 2 2 2 2.31 5.44 C2 9 2 9 0.88 11 C-1.99 12.53 -3.95 11.84 -7 11 C-9 9 -9 9 -9.31 5.5 C-9.21 4.34 -9.11 3.19 -9 2 C-5.55 -0.3 -4.05 -0.34 0 0 Z " fill="#F3C712" transform="translate(477,162)"/>
<path d="M0 0 C2 2 2 2 2.31 5.44 C2 9 2 9 0.88 11 C-1.99 12.53 -3.95 11.84 -7 11 C-9 9 -9 9 -9.31 5.5 C-9.21 4.34 -9.11 3.19 -9 2 C-5.55 -0.3 -4.05 -0.34 0 0 Z " fill="#F3C900" transform="translate(465,69)"/>
</svg>
